<svg xmlns="http://www.w3.org/2000/svg" width="960" height="540" viewBox="0 0 960 540">
  <defs>
    <linearGradient id="bg" x1="0" y1="0" x2="1" y2="1">
      <stop offset="0%" stop-color="#07111d"/>
      <stop offset="54%" stop-color="#12263f"/>
      <stop offset="100%" stop-color="#0ea5e9"/>
    </linearGradient>
    <linearGradient id="fade" x1="0" y1="0" x2="0" y2="1">
      <stop offset="0%" stop-color="rgba(0,0,0,0)"/>
      <stop offset="100%" stop-color="rgba(0,0,0,0.72)"/>
    </linearGradient>
  </defs>
  <rect width="960" height="540" rx="44" fill="url(#bg)"/>
  <circle cx="806" cy="84" r="156" fill="rgba(255,255,255,0.08)"/>
  <circle cx="134" cy="470" r="188" fill="rgba(255,255,255,0.055)"/>
  <path d="M116 132c80-58 648-58 728 0v116c-92-44-636-44-728 0z" fill="rgba(15,23,42,0.78)" stroke="rgba(255,255,255,0.2)"/>
  <path d="M172 166c82-26 534-26 616 0" stroke="rgba(255,255,255,0.24)" stroke-width="16" stroke-linecap="round"/>
  <rect x="168" y="282" width="116" height="62" rx="13" fill="rgba(96,165,250,0.26)" stroke="rgba(255,255,255,0.28)"/>
  <rect x="316" y="282" width="116" height="62" rx="13" fill="rgba(34,197,94,0.22)" stroke="rgba(255,255,255,0.28)"/>
  <rect x="464" y="282" width="116" height="62" rx="13" fill="rgba(245,158,11,0.28)" stroke="rgba(255,255,255,0.28)"/>
  <rect x="612" y="282" width="116" height="62" rx="13" fill="rgba(168,85,247,0.25)" stroke="rgba(255,255,255,0.28)"/>
  <rect y="336" width="960" height="204" fill="url(#fade)"/>
  <text x="70" y="424" font-family="Inter, Arial, sans-serif" font-size="48" font-weight="850" fill="#ffffff">Stadium Signage</text>
  <text x="72" y="470" font-family="Inter, Arial, sans-serif" font-size="24" font-weight="700" fill="rgba(255,255,255,0.78)">Concourse and VIP displays</text>
</svg>