<svg xmlns="http://www.w3.org/2000/svg" width="960" height="540" viewBox="0 0 960 540">
  <defs>
    <linearGradient id="bg" x1="0" y1="0" x2="1" y2="1">
      <stop offset="0%" stop-color="#07111d"/>
      <stop offset="54%" stop-color="#12263f"/>
      <stop offset="100%" stop-color="#2563eb"/>
    </linearGradient>
    <linearGradient id="fade" x1="0" y1="0" x2="0" y2="1">
      <stop offset="0%" stop-color="rgba(0,0,0,0)"/>
      <stop offset="100%" stop-color="rgba(0,0,0,0.72)"/>
    </linearGradient>
  </defs>
  <rect width="960" height="540" rx="44" fill="url(#bg)"/>
  <circle cx="806" cy="84" r="156" fill="rgba(255,255,255,0.08)"/>
  <circle cx="134" cy="470" r="188" fill="rgba(255,255,255,0.055)"/>
  <rect x="96" y="82" width="768" height="188" rx="26" fill="rgba(15,23,42,0.78)" stroke="rgba(255,255,255,0.22)"/>
  <rect x="128" y="112" width="154" height="62" rx="12" fill="rgba(96,165,250,0.24)" stroke="rgba(255,255,255,0.28)"/>
  <rect x="304" y="112" width="154" height="62" rx="12" fill="rgba(34,197,94,0.22)" stroke="rgba(255,255,255,0.28)"/>
  <rect x="480" y="112" width="154" height="62" rx="12" fill="rgba(245,158,11,0.26)" stroke="rgba(255,255,255,0.28)"/>
  <rect x="656" y="112" width="154" height="62" rx="12" fill="rgba(248,113,113,0.24)" stroke="rgba(255,255,255,0.28)"/>
  <rect x="128" y="190" width="330" height="48" rx="10" fill="rgba(255,255,255,0.11)"/>
  <rect x="480" y="190" width="330" height="48" rx="10" fill="rgba(255,255,255,0.11)"/>
  <rect x="190" y="308" width="580" height="58" rx="20" fill="rgba(255,255,255,0.12)" stroke="rgba(255,255,255,0.22)"/>
  <circle cx="280" cy="337" r="18" fill="rgba(255,255,255,0.18)"/>
  <circle cx="480" cy="337" r="18" fill="rgba(255,255,255,0.18)"/>
  <circle cx="680" cy="337" r="18" fill="rgba(255,255,255,0.18)"/>
  <rect y="336" width="960" height="204" fill="url(#fade)"/>
  <text x="70" y="424" font-family="Inter, Arial, sans-serif" font-size="48" font-weight="850" fill="#ffffff">Security Command</text>
  <text x="72" y="470" font-family="Inter, Arial, sans-serif" font-size="24" font-weight="700" fill="rgba(255,255,255,0.78)">Operator multiview monitoring</text>
</svg>